<svg width="44" height="44" viewBox="0 0 44 44" fill="none" xmlns="http://www.w3.org/2000/svg">
<g id="akar-icons:twitter-fill" clip-path="url(#clip0_220_86)">
<path id="Vector" d="M43.0262 9.53379C41.5264 10.1984 39.9153 10.6474 38.2215 10.8504C39.9691 9.80464 41.2766 8.15877 41.9 6.21988C40.258 7.19518 38.461 7.88168 36.587 8.24954C35.3268 6.90398 33.6576 6.01211 31.8385 5.71242C30.0195 5.41273 28.1524 5.72197 26.5271 6.59214C24.9019 7.46231 23.6094 8.84472 22.8503 10.5247C22.0912 12.2048 21.908 14.0884 22.3291 15.8832C19.002 15.7162 15.7473 14.8514 12.7761 13.3451C9.80489 11.8387 7.18362 9.72447 5.0824 7.13952C4.36394 8.37886 3.95082 9.81579 3.95082 11.3461C3.95002 12.7238 4.28928 14.0803 4.93849 15.2954C5.5877 16.5105 6.5268 17.5465 7.67246 18.3116C6.3438 18.2693 5.04445 17.9103 3.88257 17.2644V17.3722C3.88243 19.3044 4.5508 21.1772 5.77425 22.6727C6.9977 24.1682 8.70088 25.1944 10.5948 25.5771C9.36225 25.9106 8.07001 25.9598 6.81569 25.7208C7.35004 27.3833 8.39091 28.8371 9.79258 29.8787C11.1943 30.9203 12.8865 31.4975 14.6326 31.5295C11.6686 33.8563 8.00814 35.1184 4.24 35.1129C3.57252 35.113 2.90559 35.0741 2.24268 34.9961C6.06755 37.4554 10.52 38.7605 15.0672 38.7555C30.4603 38.7555 38.8753 26.0063 38.8753 14.9492C38.8753 14.59 38.8663 14.2271 38.8501 13.8679C40.487 12.6842 41.8999 11.2184 43.0226 9.53918L43.0262 9.53379Z" fill="#FFC367"/>
</g>
<defs>
<clipPath id="clip0_220_86">
<rect width="43.1078" height="43.1078" fill="white" transform="translate(0.55957 0.666016)"/>
</clipPath>
</defs>
</svg>
