<svg width="55" height="55" viewBox="0 0 55 55" fill="none" xmlns="http://www.w3.org/2000/svg">
<g id="ant-design:youtube-filled">
<path id="Vector" d="M50.5453 16.3049C50.2757 15.3006 49.747 14.3848 49.0122 13.649C48.2774 12.9133 47.3622 12.3835 46.3583 12.1125C42.6629 11.1187 27.8497 11.1187 27.8497 11.1187C27.8497 11.1187 13.0365 11.1187 9.34116 12.1073C8.3368 12.3773 7.42118 12.9068 6.68623 13.6427C5.95129 14.3786 5.4229 15.2949 5.15413 16.2996C4.16553 20.0002 4.16553 27.7187 4.16553 27.7187C4.16553 27.7187 4.16553 35.4373 5.15413 39.1326C5.69866 41.1733 7.3058 42.7804 9.34116 43.3249C13.0365 44.3188 27.8497 44.3188 27.8497 44.3188C27.8497 44.3188 42.6629 44.3188 46.3583 43.3249C48.3989 42.7804 50.0008 41.1733 50.5453 39.1326C51.5339 35.4373 51.5339 27.7187 51.5339 27.7187C51.5339 27.7187 51.5339 20.0002 50.5453 16.3049ZM23.1446 34.8029V20.6346L35.4096 27.6659L23.1446 34.8029Z" fill="#FFC367"/>
</g>
</svg>
