<svg width="44" height="44" viewBox="0 0 44 44" fill="none" xmlns="http://www.w3.org/2000/svg">
<g id="mdi:google">
<path id="Vector" d="M38.421 20.6038H21.9502V25.5073H33.6432C33.0505 32.3507 27.3567 35.2784 21.9682 35.2784C15.0889 35.2784 9.05382 29.854 9.05382 22.2204C9.05382 14.8561 14.8015 9.1623 21.9861 9.1623C27.5363 9.1623 30.7873 12.7007 30.7873 12.7007L34.2 9.14433C34.2 9.14433 29.8174 4.25879 21.8065 4.25879C11.6044 4.25879 3.71924 12.8803 3.71924 22.2204C3.71924 31.2909 11.1374 40.1819 22.076 40.1819C31.6854 40.1819 38.6904 33.59 38.6904 23.8549C38.6904 21.7893 38.421 20.6038 38.421 20.6038Z" fill="#FFC367"/>
</g>
</svg>
