<svg width="60" height="60" viewBox="0 0 60 60" fill="none" xmlns="http://www.w3.org/2000/svg">
<path id="add to cart" d="M17.7439 59.8475C16.119 59.8475 14.7286 59.2695 13.5725 58.1134C12.4144 56.9553 11.8354 55.5639 11.8354 53.9391C11.8354 52.3143 12.4144 50.9228 13.5725 49.7648C14.7286 48.6087 16.119 48.0306 17.7439 48.0306C19.3687 48.0306 20.7591 48.6087 21.9152 49.7648C23.0733 50.9228 23.6523 52.3143 23.6523 53.9391C23.6523 55.5639 23.0733 56.9553 21.9152 58.1134C20.7591 59.2695 19.3687 59.8475 17.7439 59.8475ZM47.286 59.8475C45.6612 59.8475 44.2707 59.2695 43.1147 58.1134C41.9566 56.9553 41.3776 55.5639 41.3776 53.9391C41.3776 52.3143 41.9566 50.9228 43.1147 49.7648C44.2707 48.6087 45.6612 48.0306 47.286 48.0306C48.9108 48.0306 50.3023 48.6087 51.4603 49.7648C52.6164 50.9228 53.1944 52.3143 53.1944 53.9391C53.1944 55.5639 52.6164 56.9553 51.4603 58.1134C50.3023 59.2695 48.9108 59.8475 47.286 59.8475ZM15.2328 12.58L22.3229 27.3511L26.9918 22.5987L32.6626 27.3511H43.0024L51.1265 12.58H44.3318L40.1574 20.3509L33.1796 12.58H15.2328ZM17.7439 45.0764C15.5282 45.0764 13.8541 44.1035 12.7217 42.1577C11.5892 40.2138 11.54 38.2817 12.574 36.3615L16.5622 29.1237L5.92699 6.67162H2.89892C2.06189 6.67162 1.37257 6.38801 0.830964 5.8208C0.289358 5.25556 0.0185547 4.55443 0.0185547 3.7174C0.0185547 2.88037 0.302159 2.17825 0.869369 1.61104C1.43461 1.0458 2.13574 0.763184 2.97277 0.763184H7.77337C8.31498 0.763184 8.83197 0.910895 9.32434 1.20632C9.81671 1.50174 10.186 1.92025 10.4322 2.46186L12.4263 6.67162H56.001C57.3304 6.67162 58.2412 7.16399 58.7336 8.14872C59.226 9.13346 59.2014 10.1674 58.6598 11.2507L48.1723 30.1576C47.6307 31.1424 46.9167 31.9055 46.0305 32.4472C44.974 40.902 44.1349 33.2596 43.0024 33.2596H20.9935L17.7439 39.168H50.3141C51.1511 39.168 51.8404 39.4506 52.382 40.0159C52.9236 40.5831 53.1944 41.2852 53.1944 42.1222C53.1944 42.9592 52.9108 43.6604 52.3436 44.2256C51.7784 44.7928 51.0773 45.0764 50.2402 45.0764H17.7439Z" fill="#FFCF86"/>
</svg>
