<svg width="44" height="44" viewBox="0 0 44 44" fill="none" xmlns="http://www.w3.org/2000/svg">
<g id="akar-icons:twitter-fill">
<path id="Vector" d="M42.7401 9.44133C41.2403 10.1059 39.6291 10.5549 37.9354 10.7579C39.683 9.71218 40.9905 8.06631 41.6139 6.12742C39.9719 7.10272 38.1749 7.78922 36.3008 8.15708C35.0406 6.81152 33.3714 5.91965 31.5524 5.61996C29.7334 5.32027 27.8663 5.62951 26.241 6.49968C24.6157 7.36985 23.3232 8.75226 22.5641 10.4323C21.805 12.1123 21.6218 13.9959 22.043 15.7907C18.7159 15.6237 15.4612 14.7589 12.49 13.2526C9.51876 11.7463 6.89748 9.63201 4.79627 7.04705C4.0778 8.2864 3.66469 9.72333 3.66469 11.2537C3.66389 12.6313 4.00314 13.9878 4.65236 15.2029C5.30157 16.418 6.24067 17.4541 7.38632 18.2191C6.05766 18.1769 4.75832 17.8179 3.59643 17.172V17.2798C3.5963 19.212 4.26466 21.0847 5.48812 22.5802C6.71157 24.0757 8.41475 25.1019 10.3087 25.4846C9.07612 25.8182 7.78388 25.8673 6.52956 25.6283C7.06391 27.2908 8.10478 28.7447 9.50645 29.7863C10.9081 30.8279 12.6004 31.4051 14.3464 31.4371C11.3825 33.7638 7.722 35.0259 3.95387 35.0204C3.28638 35.0206 2.61946 34.9816 1.95654 34.9036C5.78141 37.3629 10.2338 38.6681 14.7811 38.663C30.1742 38.663 38.5892 25.9139 38.5892 14.8567C38.5892 14.4975 38.5802 14.1347 38.564 13.7755C40.2008 12.5917 41.6137 11.1259 42.7365 9.44672L42.7401 9.44133Z" fill="#FFC367"/>
</g>
</svg>
