<svg width="44" height="44" viewBox="0 0 44 44" fill="none" xmlns="http://www.w3.org/2000/svg">
<g id="mdi:google">
<path id="Vector" d="M39.1348 20.511H22.6641V25.4145H34.3571C33.7643 32.2578 28.0705 35.1856 22.6821 35.1856C15.8028 35.1856 9.76769 29.7612 9.76769 22.1275C9.76769 14.7633 15.5154 9.06945 22.7 9.06945C28.2501 9.06945 31.5012 12.6079 31.5012 12.6079L34.9139 9.05149C34.9139 9.05149 30.5313 4.16595 22.5204 4.16595C12.3182 4.16595 4.43311 12.7875 4.43311 22.1275C4.43311 31.1981 11.8512 40.0891 22.7898 40.0891C32.3993 40.0891 39.4043 33.4972 39.4043 23.762C39.4043 21.6964 39.1348 20.511 39.1348 20.511Z" fill="#FFC367"/>
</g>
</svg>
